<svg xmlns="http://www.w3.org/2000/svg" version="1.1" xmlns:xlink="http://www.w3.org/1999/xlink" xmlns:svgjs="http://svgjs.com/svgjs" width="512" height="512" x="0" y="0" viewBox="0 0 510.46 510.46" style="enable-background:new 0 0 512 512" xml:space="preserve" class=""><g><path d="M415.95 494.33h-48.09V114.849c0-12.407-10.093-22.5-22.5-22.5H81.87c-12.407 0-22.5 10.093-22.5 22.5V494.33H31.5c-9.098 0-16.5-7.402-16.5-16.5v-329.8a7.5 7.5 0 0 0-15 0v329.8c0 17.369 14.131 31.5 31.5 31.5h384.45a7.5 7.5 0 0 0 0-15zm-63.09-379.481V494.33H221.11V107.349h124.25c4.135 0 7.5 3.364 7.5 7.5zm-278.49 0c0-4.136 3.364-7.5 7.5-7.5h124.24V494.33H74.37z" fill="#26ad2b" data-original="#000000" class=""></path><path d="M478.96 1.13H31.5C14.131 1.13 0 15.261 0 32.63v80.4a7.5 7.5 0 0 0 15 0v-80.4c0-9.098 7.402-16.5 16.5-16.5h447.46c9.098 0 16.5 7.402 16.5 16.5v445.2c0 9.098-7.402 16.5-16.5 16.5h-28.01a7.5 7.5 0 0 0 0 15h28.01c17.369 0 31.5-14.131 31.5-31.5V32.63c0-17.369-14.131-31.5-31.5-31.5z" fill="#26ad2b" data-original="#000000" class=""></path><path d="M305.636 79.772c6.893 0 12.5-5.607 12.5-12.5V40.506c0-6.893-5.607-12.5-12.5-12.5H121.594c-6.893 0-12.5 5.607-12.5 12.5v26.766c0 6.893 5.607 12.5 12.5 12.5zM124.094 43.006h179.042v21.766H124.094zM410.296 257.026h46.314c3.958 0 7.646-2.129 9.624-5.557a11.143 11.143 0 0 0 0-11.113l-23.157-40.109c-1.979-3.427-5.667-5.557-9.624-5.557s-7.646 2.129-9.624 5.557l-23.157 40.109a11.143 11.143 0 0 0 0 11.113 11.141 11.141 0 0 0 9.624 5.557zm23.157-43.448 16.425 28.448h-32.85zM466.234 298.896a11.144 11.144 0 0 0-9.624-5.557h-46.314a11.141 11.141 0 0 0-9.624 5.557 11.143 11.143 0 0 0 0 11.113l23.157 40.109c1.979 3.427 5.667 5.557 9.624 5.557s7.646-2.129 9.624-5.557l23.157-40.109a11.143 11.143 0 0 0 0-11.113zm-32.781 37.892-16.425-28.448h32.85z" fill="#26ad2b" data-original="#000000" class=""></path></g></svg>